<mxfile host="65bd71144e">
    <diagram id="yOtjCvt9NFVpBaILGM7R" name="PÃ¡gina-1">
        <mxGraphModel dx="6107" dy="3823" grid="1" gridSize="10" guides="1" tooltips="1" connect="1" arrows="1" fold="1" page="0" pageScale="1" pageWidth="827" pageHeight="1169" math="0" shadow="0">
            <root>
                <mxCell id="0"/>
                <mxCell id="1" parent="0"/>
                <mxCell id="221" style="edgeStyle=none;curved=1;rounded=0;orthogonalLoop=1;jettySize=auto;html=1;exitX=0.5;exitY=1;exitDx=0;exitDy=0;entryX=0.5;entryY=0;entryDx=0;entryDy=0;fontSize=36;endArrow=open;startSize=14;endSize=14;sourcePerimeterSpacing=8;targetPerimeterSpacing=8;" parent="1" source="210" target="211" edge="1">
                    <mxGeometry relative="1" as="geometry"/>
                </mxCell>
                <mxCell id="210" value="&lt;font style=&quot;font-size: 36px;&quot;&gt;login.html&lt;/font&gt;" style="rounded=0;whiteSpace=wrap;html=1;fillColor=#FFB19E;" parent="1" vertex="1">
                    <mxGeometry x="-105" y="-1140" width="570" height="430" as="geometry"/>
                </mxCell>
                <mxCell id="213" style="edgeStyle=none;curved=1;rounded=0;orthogonalLoop=1;jettySize=auto;html=1;fontSize=36;endArrow=open;startSize=14;endSize=14;sourcePerimeterSpacing=8;targetPerimeterSpacing=8;" parent="1" source="211" target="212" edge="1">
                    <mxGeometry relative="1" as="geometry"/>
                </mxCell>
                <mxCell id="217" style="edgeStyle=none;curved=1;rounded=0;orthogonalLoop=1;jettySize=auto;html=1;fontSize=36;endArrow=open;startSize=14;endSize=14;sourcePerimeterSpacing=8;targetPerimeterSpacing=8;" parent="1" source="211" target="216" edge="1">
                    <mxGeometry relative="1" as="geometry"/>
                </mxCell>
                <mxCell id="220" style="edgeStyle=none;curved=1;rounded=0;orthogonalLoop=1;jettySize=auto;html=1;fontSize=36;endArrow=open;startSize=14;endSize=14;sourcePerimeterSpacing=8;targetPerimeterSpacing=8;" parent="1" source="211" target="219" edge="1">
                    <mxGeometry relative="1" as="geometry"/>
                </mxCell>
                <mxCell id="234" style="edgeStyle=entityRelationEdgeStyle;html=1;exitX=1;exitY=0.5;exitDx=0;exitDy=0;entryX=0;entryY=0.5;entryDx=0;entryDy=0;fontSize=48;elbow=vertical;strokeColor=#000000;" parent="1" source="211" target="231" edge="1">
                    <mxGeometry relative="1" as="geometry"/>
                </mxCell>
                <mxCell id="222" value="&lt;font style=&quot;font-size: 48px;&quot;&gt;header.html&lt;/font&gt;" style="rounded=0;whiteSpace=wrap;html=1;fillColor=#ADC0FF;" parent="1" vertex="1">
                    <mxGeometry x="-1390" y="-510" width="500" height="100" as="geometry"/>
                </mxCell>
                <mxCell id="226" value="&lt;font style=&quot;font-size: 48px;&quot;&gt;footer.html&lt;/font&gt;" style="rounded=0;whiteSpace=wrap;html=1;shadow=1;fillColor=#FFCF30;" parent="1" vertex="1">
                    <mxGeometry x="-1390" y="-290" width="500" height="100" as="geometry"/>
                </mxCell>
                <mxCell id="231" value="" style="shape=ext;double=1;whiteSpace=wrap;html=1;aspect=fixed;shadow=1;strokeColor=#206E47;fontSize=48;fillColor=#8ACF00;" parent="1" vertex="1">
                    <mxGeometry x="1530" y="-830" width="850" height="850" as="geometry"/>
                </mxCell>
                <mxCell id="235" value="" style="group" parent="1" vertex="1" connectable="0">
                    <mxGeometry x="-105" y="-440" width="570" height="430" as="geometry"/>
                </mxCell>
                <mxCell id="211" value="&lt;font style=&quot;font-size: 36px;&quot;&gt;index.html&lt;/font&gt;" style="rounded=0;whiteSpace=wrap;html=1;fillColor=#FFB19E;" parent="235" vertex="1">
                    <mxGeometry width="570" height="430" as="geometry"/>
                </mxCell>
                <mxCell id="230" value="&lt;font style=&quot;font-size: 48px;&quot;&gt;footer.html&lt;/font&gt;" style="rounded=0;whiteSpace=wrap;html=1;fillColor=#FFCF30;" parent="235" vertex="1">
                    <mxGeometry x="35" y="290" width="500" height="100" as="geometry"/>
                </mxCell>
                <mxCell id="236" value="" style="group" parent="1" vertex="1" connectable="0">
                    <mxGeometry x="830" y="440" width="570" height="430" as="geometry"/>
                </mxCell>
                <mxCell id="219" value="&lt;font style=&quot;font-size: 36px;&quot;&gt;orders.html&lt;br&gt;&lt;/font&gt;" style="rounded=0;whiteSpace=wrap;html=1;fontSize=36;fillColor=#FFB19E;" parent="236" vertex="1">
                    <mxGeometry width="570" height="430" as="geometry"/>
                </mxCell>
                <mxCell id="225" value="&lt;font style=&quot;font-size: 48px;&quot;&gt;header.html&lt;/font&gt;" style="rounded=0;whiteSpace=wrap;html=1;fillColor=#ADC0FF;" parent="236" vertex="1">
                    <mxGeometry x="35" y="20" width="500" height="100" as="geometry"/>
                </mxCell>
                <mxCell id="229" value="&lt;font style=&quot;font-size: 48px;&quot;&gt;footer.html&lt;/font&gt;" style="rounded=0;whiteSpace=wrap;html=1;fillColor=#FFCF30;" parent="236" vertex="1">
                    <mxGeometry x="35" y="310" width="500" height="100" as="geometry"/>
                </mxCell>
                <mxCell id="237" value="" style="group" parent="1" vertex="1" connectable="0">
                    <mxGeometry x="-110" y="440" width="570" height="430" as="geometry"/>
                </mxCell>
                <mxCell id="216" value="customers.html" style="rounded=0;whiteSpace=wrap;html=1;fontSize=36;fillColor=#FFB19E;" parent="237" vertex="1">
                    <mxGeometry width="570" height="430" as="geometry"/>
                </mxCell>
                <mxCell id="224" value="&lt;font style=&quot;font-size: 48px;&quot;&gt;header.html&lt;/font&gt;" style="rounded=0;whiteSpace=wrap;html=1;fillColor=#ADC0FF;" parent="237" vertex="1">
                    <mxGeometry x="40" y="20" width="500" height="100" as="geometry"/>
                </mxCell>
                <mxCell id="228" value="&lt;font style=&quot;font-size: 48px;&quot;&gt;footer.html&lt;/font&gt;" style="rounded=0;whiteSpace=wrap;html=1;fillColor=#FFCF30;" parent="237" vertex="1">
                    <mxGeometry x="40" y="310" width="500" height="100" as="geometry"/>
                </mxCell>
                <mxCell id="238" value="" style="group" parent="1" vertex="1" connectable="0">
                    <mxGeometry x="-1110" y="440" width="570" height="430" as="geometry"/>
                </mxCell>
                <mxCell id="212" value="manufactures.html" style="rounded=0;whiteSpace=wrap;html=1;fontSize=36;fillColor=#FFB19E;" parent="238" vertex="1">
                    <mxGeometry width="570" height="430" as="geometry"/>
                </mxCell>
                <mxCell id="223" value="&lt;font style=&quot;font-size: 48px;&quot;&gt;header.html&lt;/font&gt;" style="rounded=0;whiteSpace=wrap;html=1;fillColor=#ADC0FF;" parent="238" vertex="1">
                    <mxGeometry x="35" y="20" width="500" height="100" as="geometry"/>
                </mxCell>
                <mxCell id="227" value="&lt;font style=&quot;font-size: 48px;&quot;&gt;footer.html&lt;/font&gt;" style="rounded=0;whiteSpace=wrap;html=1;fillColor=#FFCF30;" parent="238" vertex="1">
                    <mxGeometry x="35" y="310" width="500" height="100" as="geometry"/>
                </mxCell>
                <mxCell id="240" value="1" style="ellipse;shape=doubleEllipse;whiteSpace=wrap;html=1;aspect=fixed;shadow=1;strokeColor=#206E47;fontSize=48;fillColor=#FFB19E;" parent="1" vertex="1">
                    <mxGeometry x="1590" y="-730" width="120" height="120" as="geometry"/>
                </mxCell>
                <mxCell id="242" value="2" style="ellipse;shape=doubleEllipse;whiteSpace=wrap;html=1;aspect=fixed;shadow=1;strokeColor=#206E47;fontSize=48;fillColor=#FFB19E;" parent="1" vertex="1">
                    <mxGeometry x="1590" y="-560" width="120" height="120" as="geometry"/>
                </mxCell>
                <mxCell id="243" value="3" style="ellipse;shape=doubleEllipse;whiteSpace=wrap;html=1;aspect=fixed;shadow=1;strokeColor=#206E47;fontSize=48;fillColor=#FFB19E;" parent="1" vertex="1">
                    <mxGeometry x="1590" y="-390" width="120" height="120" as="geometry"/>
                </mxCell>
                <mxCell id="244" value="1" style="ellipse;shape=doubleEllipse;whiteSpace=wrap;html=1;aspect=fixed;shadow=1;strokeColor=#206E47;fontSize=48;fillColor=#FFB19E;" parent="1" vertex="1">
                    <mxGeometry x="-1060" y="330" width="80" height="80" as="geometry"/>
                </mxCell>
                <mxCell id="245" value="2" style="ellipse;shape=doubleEllipse;whiteSpace=wrap;html=1;aspect=fixed;shadow=1;strokeColor=#206E47;fontSize=48;fillColor=#FFB19E;" parent="1" vertex="1">
                    <mxGeometry x="-40" y="330" width="80" height="80" as="geometry"/>
                </mxCell>
                <mxCell id="246" value="3" style="ellipse;shape=doubleEllipse;whiteSpace=wrap;html=1;aspect=fixed;shadow=1;strokeColor=#206E47;fontSize=48;fillColor=#FFB19E;" parent="1" vertex="1">
                    <mxGeometry x="920" y="330" width="80" height="80" as="geometry"/>
                </mxCell>
                <mxCell id="247" value="show clients" style="html=1;whiteSpace=wrap;container=1;recursiveResize=0;collapsible=0;shadow=1;strokeColor=#206E47;fontSize=48;fillColor=#FFB19E;" parent="1" vertex="1">
                    <mxGeometry x="1740" y="-737.5" width="310" height="137.5" as="geometry"/>
                </mxCell>
                <mxCell id="248" value="" style="triangle;html=1;whiteSpace=wrap;shadow=1;strokeColor=#206E47;fontSize=48;fillColor=#FFB19E;" parent="247" vertex="1">
                    <mxGeometry x="20" y="20" width="20" height="30" as="geometry"/>
                </mxCell>
                <mxCell id="249" value="show orders" style="html=1;whiteSpace=wrap;container=1;recursiveResize=0;collapsible=0;shadow=1;strokeColor=#206E47;fontSize=48;fillColor=#FFB19E;" parent="1" vertex="1">
                    <mxGeometry x="1740" y="-567.5" width="310" height="157.5" as="geometry"/>
                </mxCell>
                <mxCell id="250" value="" style="triangle;html=1;whiteSpace=wrap;shadow=1;strokeColor=#206E47;fontSize=48;fillColor=#FFB19E;" parent="249" vertex="1">
                    <mxGeometry x="20" y="20" width="20" height="30" as="geometry"/>
                </mxCell>
                <mxCell id="251" value="show manufactures" style="html=1;whiteSpace=wrap;container=1;recursiveResize=0;collapsible=0;shadow=1;strokeColor=#206E47;fontSize=48;fillColor=#FFB19E;" parent="1" vertex="1">
                    <mxGeometry x="1740" y="-390" width="310" height="180" as="geometry"/>
                </mxCell>
                <mxCell id="252" value="" style="triangle;html=1;whiteSpace=wrap;shadow=1;strokeColor=#206E47;fontSize=48;fillColor=#FFB19E;" parent="251" vertex="1">
                    <mxGeometry x="20" y="20" width="20" height="30" as="geometry"/>
                </mxCell>
                <mxCell id="254" value="user picture" style="ellipse;shape=doubleEllipse;whiteSpace=wrap;html=1;aspect=fixed;shadow=1;strokeColor=#206E47;fontSize=48;fillColor=#D0B5FF;" parent="1" vertex="1">
                    <mxGeometry x="2150" y="-820" width="200" height="200" as="geometry"/>
                </mxCell>
                <mxCell id="258" value="username" style="shape=ext;double=1;rounded=0;whiteSpace=wrap;html=1;shadow=1;strokeColor=#206E47;fontSize=48;fillColor=#D0B5FF;" parent="1" vertex="1">
                    <mxGeometry x="2130" y="-640" width="240" height="50" as="geometry"/>
                </mxCell>
                <mxCell id="260" style="edgeStyle=entityRelationEdgeStyle;html=1;exitX=1;exitY=0.5;exitDx=0;exitDy=0;strokeColor=#000000;fontSize=48;elbow=vertical;" parent="1" source="259" target="261" edge="1">
                    <mxGeometry relative="1" as="geometry">
                        <mxPoint x="1940" y="-1164" as="targetPoint"/>
                    </mxGeometry>
                </mxCell>
                <mxCell id="259" value="" style="ellipse;shape=doubleEllipse;whiteSpace=wrap;html=1;aspect=fixed;shadow=1;strokeColor=#206E47;fontSize=48;fillColor=#D0B5FF;" parent="1" vertex="1">
                    <mxGeometry x="1520" y="-1250" width="173" height="173" as="geometry"/>
                </mxCell>
                <mxCell id="261" value="for implement in future" style="html=1;whiteSpace=wrap;container=1;recursiveResize=0;collapsible=0;shadow=1;strokeColor=#206E47;fontSize=48;fillColor=#D0B5FF;" parent="1" vertex="1">
                    <mxGeometry x="1850" y="-1250" width="350" height="169" as="geometry"/>
                </mxCell>
                <mxCell id="262" value="" style="triangle;html=1;whiteSpace=wrap;shadow=1;strokeColor=#206E47;fontSize=48;fillColor=#D0B5FF;" parent="261" vertex="1">
                    <mxGeometry x="20" y="20" width="20" height="30" as="geometry"/>
                </mxCell>
            </root>
        </mxGraphModel>
    </diagram>
</mxfile>